<svg width="25" height="24" viewBox="0 0 25 24" fill="none" xmlns="http://www.w3.org/2000/svg">
<path fill-rule="evenodd" clip-rule="evenodd" d="M12.4998 0C5.70212 0 0.196289 5.50583 0.196289 12.3035C0.196289 17.7478 3.71817 22.3463 8.60883 23.9765C9.224 24.0842 9.45469 23.715 9.45469 23.3921C9.45469 23.0999 9.43932 22.131 9.43932 21.1005C6.34805 21.6696 5.54832 20.347 5.30225 19.6549C5.16384 19.3012 4.56404 18.2092 4.04114 17.917C3.61052 17.6863 2.99534 17.1173 4.02576 17.1019C4.99467 17.0865 5.68674 17.9939 5.91743 18.363C7.02475 20.2239 8.79338 19.701 9.50083 19.3781C9.60849 18.5783 9.93146 18.04 10.2852 17.7325C7.54765 17.4249 4.68708 16.3637 4.68708 11.6576C4.68708 10.3196 5.16384 9.21226 5.94819 8.35102C5.82515 8.04343 5.39453 6.78232 6.07122 5.09058C6.07122 5.09058 7.10164 4.76762 9.45469 6.3517C10.439 6.07487 11.4848 5.93645 12.5306 5.93645C13.5764 5.93645 14.6222 6.07487 15.6065 6.3517C17.9595 4.75224 18.9899 5.09058 18.9899 5.09058C19.6666 6.78232 19.236 8.04343 19.113 8.35102C19.8973 9.21226 20.3741 10.3042 20.3741 11.6576C20.3741 16.3791 17.4981 17.4249 14.7606 17.7325C15.2066 18.1169 15.5911 18.8552 15.5911 20.0086C15.5911 21.6542 15.5757 22.9768 15.5757 23.3921C15.5757 23.715 15.8064 24.0995 16.4216 23.9765C21.2815 22.3463 24.8033 17.7325 24.8033 12.3035C24.8033 5.50583 19.2975 0 12.4998 0V0Z" fill="#4F4F4F"/>
</svg>
