<svg width="829" height="118" viewBox="0 0 829 118" fill="none" xmlns="http://www.w3.org/2000/svg">
<path d="M101.985 112.967C102.902 114.348 101.985 115.959 100.381 115.959H77.0044C75.4001 115.959 74.025 115.269 73.1083 113.888L40.5648 59.8055L3.66688 117.11C2.52098 118.721 0 118.03 0 115.959V31.0382C0 28.5067 0.687539 27.8163 2.06262 25.745L24.7514 0.890068C25.8973 -0.720901 28.4183 -0.0304859 28.4183 2.04076V67.4001L72.8791 3.42159C73.5667 2.50104 74.4834 1.81062 75.6293 1.81062H101.068C102.214 1.81062 103.131 3.19145 102.443 4.112L66.2329 58.8849L101.985 112.967Z" fill="white"/>
<path d="M137.28 7.6969H151.564V55.7498L174.777 7.6969H187.99L167.991 52.5223L191.204 109.54H177.633L158.35 61.846L151.922 73.6799V109.54H137.637V7.6969H137.28Z" fill="white"/>
<path d="M209.775 7.6969H219.417L247.986 75.1143V7.6969H259.771V109.54H250.843L221.56 39.9712V109.54H209.418V7.6969H209.775Z" fill="white"/>
<path d="M290.48 102.01C286.194 96.2721 284.052 88.0242 284.052 77.6247V39.2542C284.052 28.8547 286.194 20.6068 290.48 15.2277C294.765 9.84869 301.907 6.97986 311.906 6.97986C321.905 6.97986 328.69 9.84869 332.976 15.2277C337.261 20.6068 339.404 28.8547 339.404 39.2542V77.9833C339.404 88.3828 337.261 96.6307 332.976 102.368C328.69 108.106 321.548 110.975 311.906 110.975C301.907 110.616 294.765 107.747 290.48 102.01ZM322.62 94.8377C324.405 91.6103 325.476 86.9484 325.476 80.8522V36.3853C325.476 30.2891 324.405 25.6272 322.62 22.7584C320.834 19.8896 317.263 18.4552 311.906 18.4552C306.55 18.4552 302.979 19.8896 301.193 22.7584C299.407 25.2686 298.336 29.9305 298.336 36.3853V80.8522C298.336 87.307 299.407 91.9689 301.193 94.8377C302.979 98.0651 306.55 99.4995 311.906 99.4995C317.263 99.4995 320.477 98.0651 322.62 94.8377Z" fill="white"/>
<path d="M367.973 101.651C364.044 95.5549 361.902 87.307 361.902 76.9075V41.0472C361.902 29.9305 364.044 21.324 367.973 15.5863C371.901 9.84869 379.043 6.97986 389.042 6.97986C397.97 6.97986 404.755 9.49008 408.683 14.5105C412.611 19.531 414.754 26.703 414.754 36.3853V44.2746H401.541V37.1025C401.541 32.4407 401.184 28.8547 400.827 26.3444C400.47 23.8342 399.398 21.6826 397.613 20.2482C395.827 18.8138 393.327 18.0966 389.399 18.0966C385.471 18.0966 382.614 18.8138 380.829 20.6068C379.043 22.3998 377.615 24.5514 377.258 27.4203C376.543 30.2891 376.543 34.2337 376.543 38.8956V79.0591C376.543 84.0796 376.9 88.3828 377.615 91.2517C378.329 94.1205 379.757 96.2721 381.543 97.7065C383.328 99.1409 386.185 99.4995 389.399 99.4995C392.97 99.4995 395.827 98.7823 397.256 96.9893C398.684 95.1963 400.113 93.4033 400.47 90.5345C400.827 87.6656 401.184 84.0796 401.184 79.4177V71.8871H414.397V79.4177C414.397 89.4586 412.611 97.3479 408.683 102.727C404.755 108.106 398.327 110.975 389.042 110.975C379.043 110.616 371.901 107.747 367.973 101.651Z" fill="white"/>
<path d="M438.321 7.6969H452.605V55.7498L475.818 7.6969H489.031L469.033 52.5223L492.245 109.54H478.675L459.033 61.846L452.605 73.6799V109.54H438.321V7.6969Z" fill="white"/>
<path d="M510.818 7.6969H525.103V99.1408H550.815V109.182H510.818V7.6969Z" fill="white"/>
<path d="M570.81 7.6969H610.092V18.455H585.095V52.1637H605.45V62.2046H585.095V99.4994H610.449V109.54H570.81V7.6969Z" fill="white"/>
<path d="M647.948 7.6969H661.518L683.302 109.54H669.731L665.089 84.0794H644.734L639.734 109.54H626.521L647.948 7.6969ZM663.303 73.6799L654.733 27.7787L646.519 73.6799H663.303Z" fill="white"/>
<path d="M703.655 7.6969H724.01C734.367 7.6969 741.866 9.84852 746.508 14.1518C751.151 18.455 753.65 25.2685 753.65 34.9508C753.65 47.8605 749.365 55.7498 741.152 58.6186L755.436 109.54H741.866L728.653 61.846H717.582V109.54H703.298V7.6969H703.655ZM723.296 51.8051C729.367 51.8051 733.652 50.7293 736.509 48.2191C739.009 45.7089 740.437 41.4056 740.437 34.9508C740.437 30.6475 740.08 27.4201 739.009 25.2685C737.938 22.7582 736.509 20.9652 734.009 19.8894C731.51 18.8136 728.296 18.0964 724.01 18.0964H717.582V51.8051H723.296Z" fill="white"/>
<path d="M779.005 7.6969H788.647L817.215 75.1143V7.6969H829V109.54H820.072L791.146 39.9712V109.54H779.005V7.6969Z" fill="white"/>
</svg>
