<svg width="829" height="167" viewBox="0 0 829 167" fill="none" xmlns="http://www.w3.org/2000/svg">
<g clip-path="url(#clip0_2_5614)">
<path d="M144.329 159.824C145.626 161.781 144.329 164.064 142.059 164.064H108.977C106.706 164.064 104.76 163.086 103.463 161.129L57.4073 84.4783L5.18936 165.695C3.56768 167.978 0 167 0 164.064V43.7068C0 40.1189 0.973004 39.1404 2.91901 36.2048L35.0282 0.978277C36.6498 -1.30493 40.2175 -0.32641 40.2175 2.60914V95.2419L103.138 4.56617C104.111 3.26148 105.409 2.28296 107.031 2.28296H143.032C144.653 2.28296 145.951 4.24 144.978 5.54468L93.7328 83.1736L144.329 159.824Z" fill="#102942"/>
<path d="M194.277 3.26172H207.25V46.9687L228.332 3.26172H240.332L222.169 44.0332L243.251 95.8945H230.926L213.412 52.5137L207.574 63.2773V95.8945H194.601V3.26172H194.277Z" fill="#102942"/>
<path d="M260.117 3.26172H268.874L294.82 64.582V3.26172H305.523V95.8945H297.415L270.82 32.6172V95.8945H259.792V3.26172H260.117Z" fill="#102942"/>
<path d="M333.416 89.0449C329.524 83.8262 327.578 76.3242 327.578 66.8652V31.9648C327.578 22.5059 329.524 15.0039 333.416 10.1113C337.308 5.21875 343.795 2.60938 352.876 2.60938C361.958 2.60938 368.12 5.21875 372.012 10.1113C375.904 15.0039 377.85 22.5059 377.85 31.9648V67.1914C377.85 76.6504 375.904 84.1523 372.012 89.3711C368.12 94.5898 361.633 97.1992 352.876 97.1992C343.795 96.873 337.308 94.2637 333.416 89.0449ZM362.606 82.5215C364.228 79.5859 365.201 75.3457 365.201 69.8008V29.3555C365.201 23.8105 364.228 19.5703 362.606 16.9609C360.985 14.3516 357.741 13.0469 352.876 13.0469C348.011 13.0469 344.768 14.3516 343.146 16.9609C341.525 19.2441 340.552 23.4844 340.552 29.3555V69.8008C340.552 75.6719 341.525 79.9121 343.146 82.5215C344.768 85.457 348.011 86.7617 352.876 86.7617C357.741 86.7617 360.66 85.457 362.606 82.5215Z" fill="#102942"/>
<path d="M403.797 88.7188C400.229 83.1738 398.283 75.6719 398.283 66.2129V33.5957C398.283 23.4844 400.229 15.6563 403.797 10.4375C407.365 5.21875 413.851 2.60938 422.933 2.60938C431.041 2.60938 437.203 4.89258 440.771 9.45898C444.339 14.0254 446.285 20.5488 446.285 29.3555V36.5312H434.284V30.0078C434.284 25.7676 433.96 22.5059 433.636 20.2227C433.311 17.9395 432.338 15.9824 430.717 14.6777C429.095 13.373 426.825 12.7207 423.257 12.7207C419.689 12.7207 417.095 13.373 415.473 15.0039C413.851 16.6348 412.554 18.5918 412.23 21.2012C411.581 23.8105 411.581 27.3984 411.581 31.6387V68.1699C411.581 72.7363 411.905 76.6504 412.554 79.2598C413.203 81.8691 414.5 83.8262 416.122 85.1309C417.743 86.4356 420.338 86.7617 423.257 86.7617C426.5 86.7617 429.095 86.1094 430.392 84.4785C431.69 82.8477 432.987 81.2168 433.311 78.6074C433.636 75.9981 433.96 72.7363 433.96 68.4961V61.6465H445.96V68.4961C445.96 77.6289 444.339 84.8047 440.771 89.6973C437.203 94.5898 431.365 97.1992 422.933 97.1992C413.851 96.873 407.365 94.2637 403.797 88.7188Z" fill="#102942"/>
<path d="M467.691 3.26172H480.664V46.9687L501.746 3.26172H513.747L495.584 44.0332L516.666 95.8945H504.341L486.502 52.5137L480.664 63.2773V95.8945H467.691V3.26172Z" fill="#102942"/>
<path d="M533.531 3.26172H546.504V86.4355H569.856V95.5684H533.531V3.26172Z" fill="#102942"/>
<path d="M588.019 3.26172H623.696V13.0469H600.992V43.707H619.48V52.8398H600.992V86.7617H624.02V95.8945H588.019V3.26172Z" fill="#102942"/>
<path d="M658.076 3.26172H670.4L690.185 95.8945H677.86L673.644 72.7363H655.157L650.616 95.8945H638.615L658.076 3.26172ZM672.022 63.2773L664.238 21.5273L656.778 63.2773H672.022Z" fill="#102942"/>
<path d="M708.672 3.26172H727.159C736.565 3.26172 743.376 5.21875 747.592 9.13281C751.808 13.0469 754.079 19.2441 754.079 28.0508C754.079 39.793 750.187 46.9687 742.727 49.5781L755.7 95.8945H743.376L731.375 52.5137H721.321V95.8945H708.347V3.26172H708.672ZM726.51 43.3809C732.024 43.3809 735.916 42.4023 738.511 40.1191C740.781 37.8359 742.078 33.9219 742.078 28.0508C742.078 24.1367 741.754 21.2012 740.781 19.2441C739.808 16.9609 738.511 15.3301 736.24 14.3516C733.97 13.373 731.051 12.7207 727.159 12.7207H721.321V43.3809H726.51Z" fill="#102942"/>
<path d="M777.106 3.26172H785.863L811.81 64.582V3.26172H822.513V95.8945H814.405L788.134 32.6172V95.8945H777.106V3.26172Z" fill="#102942"/>
<path d="M227.034 139.275C226.061 145.146 224.764 150.039 222.494 153.953C224.44 156.889 226.71 159.498 229.629 160.803C228.98 161.455 227.683 162.76 227.034 163.738C224.115 162.107 222.169 159.824 220.223 156.889C217.953 159.824 215.358 161.781 211.791 163.738C211.466 163.086 210.493 161.129 209.845 160.477C213.737 158.846 216.331 156.236 218.602 153.301C217.304 150.365 216.331 147.43 215.683 143.842C215.034 145.146 214.385 146.451 213.412 147.43C213.088 146.777 212.115 146.125 211.142 145.473C209.52 147.43 207.574 149.387 205.628 150.691V151.996L213.088 151.344V154.279C210.493 154.605 208.223 154.932 205.628 154.932V159.824C205.628 161.455 205.304 162.434 204.007 162.76C202.709 163.086 201.088 163.412 198.817 163.412C198.817 162.434 198.169 161.129 197.844 160.15C199.466 160.15 201.088 160.15 201.736 160.15C202.385 160.15 202.385 160.15 202.385 159.498V155.258C199.466 155.584 196.871 155.91 194.925 155.91L194.601 152.648C196.871 152.322 199.466 152.322 202.385 151.996V148.734H203.682C204.655 148.082 205.628 147.104 206.277 146.451H202.709C200.763 148.082 198.493 149.713 196.222 151.018C195.898 150.365 194.601 149.061 193.952 148.408C195.249 147.756 196.547 147.104 197.844 146.125V143.842H200.763C201.736 143.189 202.385 142.211 203.358 141.559H194.601V138.297H200.763V135.035H196.222V132.1H200.763V128.512H204.007V132.1H208.223V134.709C209.196 133.078 210.169 131.121 210.818 129.164L214.061 130.143C212.764 133.078 211.466 135.688 209.845 138.297H213.088V141.232C214.71 137.645 216.007 133.078 216.98 128.512L220.548 129.164C220.223 131.447 219.575 133.404 219.25 135.687H229.953V138.949H227.034V139.275ZM205.953 139.275C206.601 138.297 207.574 137.318 208.223 136.014H204.331V139.275H205.953ZM209.52 144.494L210.818 145.473C211.466 144.494 212.115 143.516 212.764 142.211H207.574C206.926 143.189 206.277 143.842 205.628 144.494H208.872H209.52ZM217.953 139.275C218.602 143.189 219.575 146.777 220.872 150.039C222.169 147.104 223.142 143.516 223.467 139.275H217.953Z" fill="#102942"/>
<path d="M273.09 135.687H264.333C267.576 137.971 271.144 140.58 273.09 142.863L270.171 144.82C269.522 144.168 268.874 143.189 267.576 142.211C258.171 142.537 248.116 142.863 241.629 142.863V139.602C243.251 139.602 244.873 139.602 246.819 139.602C247.792 138.297 248.765 136.666 249.414 135.361H240.008V132.1H254.927V128.512H258.495V132.1H273.414V135.687H273.09ZM267.901 160.803C267.901 162.434 267.576 163.412 265.955 163.738C264.657 164.064 262.387 164.391 259.468 164.391C259.144 163.412 258.819 162.434 258.495 161.455C260.441 161.455 262.711 161.455 263.36 161.455C264.009 161.455 264.333 161.129 264.333 160.803V158.193H248.441V164.391H244.873V145.146H267.901V160.803ZM248.765 148.082V150.365H264.657V148.082H248.765ZM264.333 155.584V152.975H248.441V155.584H264.333ZM253.63 135.687C252.657 136.992 251.36 138.623 250.387 139.602C254.603 139.602 259.468 139.602 264.009 139.275C262.711 138.297 261.738 137.645 260.765 136.666L262.711 135.361H253.63V135.687Z" fill="#102942"/>
<path d="M300.01 158.846C301.307 158.846 302.604 158.52 303.253 158.193C308.118 157.215 312.334 153.627 312.334 147.43C312.334 141.885 309.091 137.645 303.253 136.992C302.604 140.254 301.956 144.168 300.983 147.756C298.712 155.584 295.469 159.824 291.901 159.824C288.334 159.824 284.766 155.584 284.766 149.387C284.766 140.906 292.226 133.73 301.631 133.73C310.713 133.73 316.551 139.928 316.551 148.082C316.551 155.91 311.361 161.455 302.28 162.76L300.01 158.846ZM297.415 146.777C298.388 143.842 299.037 140.254 299.361 136.992C292.55 137.971 288.658 144.168 288.658 148.734C288.658 152.975 290.604 154.932 292.226 154.932C293.847 155.258 295.793 152.648 297.415 146.777Z" fill="#102942"/>
<path d="M360.985 137.318C360.985 137.318 360.985 138.623 360.985 138.949C360.012 154.605 359.363 160.15 357.741 162.107C356.768 163.412 355.795 163.738 354.174 163.738C352.876 163.738 350.282 163.738 348.011 163.738C348.011 162.76 347.363 161.129 346.714 160.15C349.309 160.477 351.579 160.477 352.552 160.477C353.525 160.477 353.849 160.477 354.174 159.824C355.471 158.52 356.12 153.301 356.768 140.906H344.768C344.119 148.734 341.525 158.193 330.821 164.391C330.173 163.412 328.875 162.107 328.227 161.455C338.281 155.91 340.552 147.756 341.2 140.906H329.524V137.318H341.525V136.34V129.164H345.417V136.34V137.318H360.985V137.318Z" fill="#102942"/>
<path d="M377.526 135.361C380.12 135.035 386.931 134.383 394.067 133.73C397.959 133.404 401.851 133.078 404.445 133.078V136.992C402.499 136.992 398.932 136.992 396.986 137.645C392.121 139.275 388.553 144.494 388.553 149.061C388.553 155.91 395.04 158.193 401.202 158.52L399.905 162.434C392.445 162.107 384.661 158.193 384.661 149.713C384.661 143.842 387.904 139.275 391.148 137.318C387.904 137.645 378.499 138.623 374.282 139.602L373.958 135.361C375.255 135.688 376.553 135.361 377.526 135.361ZM401.851 146.451L399.58 147.43C398.607 145.473 397.634 143.842 396.661 142.211L398.932 141.232C399.905 142.537 401.202 145.146 401.851 146.451ZM406.391 144.82L404.121 146.125C403.148 144.168 402.175 142.537 400.878 140.906L403.148 139.928C404.121 140.906 405.418 143.189 406.391 144.82Z" fill="#102942"/>
<path d="M425.527 163.412C423.257 160.477 420.014 157.215 417.094 154.932L420.338 152.322C422.933 154.605 426.5 158.193 428.771 160.803L425.527 163.412Z" fill="#102942"/>
<path d="M471.907 150.039C469.312 152.975 466.069 156.236 463.474 158.846L461.204 155.91C463.474 153.953 466.718 150.365 469.961 147.104L471.907 150.039ZM469.312 139.928C468.015 138.297 465.096 135.687 462.501 134.057L465.096 131.447C467.366 133.078 470.61 135.361 471.907 136.992L469.312 139.928ZM484.881 143.842C484.881 147.43 486.827 156.889 496.557 161.129C495.908 162.107 494.935 163.412 494.286 164.391C486.827 161.129 483.583 153.627 482.935 150.039C482.286 153.627 478.718 160.803 469.961 164.391C469.637 163.738 468.339 162.107 467.691 161.455C478.718 157.215 480.664 147.756 480.664 143.842V139.602H476.772C475.475 142.537 474.178 145.146 472.556 147.104C471.907 146.451 469.961 145.473 469.312 145.146C472.556 141.559 474.826 135.687 476.124 129.49L479.691 130.143C479.367 132.1 478.718 134.057 478.07 136.014H492.34L492.989 135.687L496.232 136.992C495.259 140.58 493.313 144.494 492.016 147.104C491.367 146.777 489.746 146.125 489.097 145.799C490.07 144.168 491.043 141.559 491.692 139.275H484.881V143.842Z" fill="#102942"/>
<path d="M531.26 153.953V152.322H525.098V153.953H521.53V141.885H515.368V158.193H539.369V161.781H515.368V164.391H511.8V141.885H506.287V138.623H511.8V130.469H515.368V138.623H521.53V129.49H525.098V138.623H531.26V129.816H534.828V138.623H540.666V141.885H534.828V153.953H531.26ZM531.26 149.061V141.885H525.098V149.061H531.26Z" fill="#102942"/>
<path d="M563.694 130.469C562.721 133.078 561.424 135.361 559.802 137.971V164.064H556.234V143.189C554.937 145.146 553.315 146.777 551.694 148.082C551.369 147.104 550.396 145.473 549.748 144.494C553.964 140.906 558.18 135.035 560.451 129.164L563.694 130.469ZM573.748 143.842C575.046 153.301 577.316 159.498 580.884 159.824C581.857 159.824 582.505 157.867 582.83 153.301C583.478 153.953 585.1 154.932 585.749 155.258C584.776 162.107 583.154 164.064 581.208 164.064C574.721 163.412 571.802 155.91 570.505 144.168L562.072 145.146L561.424 141.885L569.856 140.906C569.532 137.318 569.208 133.73 569.208 129.49H572.775C572.775 133.404 573.1 136.992 573.424 140.254L584.451 138.949L584.776 142.211L573.748 143.842ZM581.532 137.645C580.559 136.014 577.965 133.404 575.694 131.447L578.289 129.816C580.559 131.773 582.83 134.057 584.127 136.014L581.532 137.645Z" fill="#102942"/>
<path d="M598.073 147.43C600.019 145.473 602.938 141.233 605.209 138.623C607.479 135.688 609.749 135.362 612.344 137.971C614.615 140.254 617.858 144.168 620.128 146.778C622.399 149.387 625.966 152.975 629.534 156.237L626.615 159.824C623.696 157.215 620.453 153.301 617.858 150.366C615.588 147.43 612.669 143.842 610.722 141.885C609.101 140.254 608.452 140.58 607.479 141.885C605.857 143.842 602.938 148.082 601.317 150.366C600.344 151.344 599.695 152.649 599.046 153.627L595.479 150.039C596.127 149.387 597.1 148.735 598.073 147.43Z" fill="#102942"/>
<path d="M649.318 135.361L653.535 136.34C653.21 137.318 652.886 138.623 652.886 139.602C652.237 142.211 650.94 147.756 649.643 151.344C648.345 154.932 646.075 159.172 644.129 162.107L639.913 160.477C642.183 157.215 644.453 153.301 645.751 150.039C647.372 145.473 648.67 139.928 649.318 135.361ZM658.724 136.014L662.616 134.709C664.238 137.645 666.832 143.189 668.13 147.104C669.427 150.691 671.697 156.889 672.67 160.477L668.454 161.781C667.481 157.541 665.859 152.648 664.238 148.408C662.94 144.494 660.346 138.949 658.724 136.014ZM670.076 136.34L667.481 137.318C666.832 135.687 665.535 133.404 664.562 132.1L667.157 131.121C668.13 132.426 669.427 134.709 670.076 136.34ZM674.617 134.709L672.022 135.687C671.049 134.057 670.076 131.773 668.778 130.469L671.373 129.49C672.346 130.795 673.968 133.404 674.617 134.709Z" fill="#102942"/>
<path d="M713.212 151.996C709.32 149.713 703.158 147.43 698.941 146.125V157.867C698.941 159.172 698.941 161.455 699.266 162.76H694.725C695.049 161.455 695.049 159.498 695.049 157.867V135.687C695.049 134.383 695.049 132.752 694.725 131.447H699.266C699.266 132.752 698.941 134.383 698.941 135.687V141.559C703.806 143.189 711.266 145.799 715.158 147.756L713.212 151.996Z" fill="#102942"/>
<path d="M746.619 152.975C752.781 149.061 757.646 143.516 759.917 138.623L762.187 142.863C759.592 147.756 754.727 152.975 748.889 156.562C744.997 158.846 740.132 161.129 734.294 162.107L731.699 158.193C737.862 157.215 743.051 155.258 746.619 152.975ZM745.322 140.58L742.402 143.842C740.456 141.885 735.591 137.645 732.997 135.687L735.916 132.752C738.186 134.383 743.051 138.623 745.322 140.58Z" fill="#102942"/>
<path d="M790.728 155.91C790.728 154.605 790.728 152.322 790.728 150.691C787.485 152.648 785.539 154.279 785.539 156.562C785.539 159.172 788.134 159.824 791.701 159.824C794.621 159.824 798.837 159.498 802.08 158.846V162.76C799.486 163.086 794.945 163.412 791.701 163.412C786.188 163.412 781.647 162.107 781.647 157.541C781.647 152.975 786.188 150.039 790.404 147.756C790.08 146.451 788.782 145.799 787.485 145.799C785.215 145.799 782.944 147.104 781.323 148.408C780.35 149.387 779.052 151.018 777.755 152.322L774.512 149.713C779.052 145.473 781.323 141.885 782.944 138.623H781.971C780.35 138.623 777.755 138.623 775.809 138.297V134.709C777.755 135.035 780.35 135.035 782.296 135.035C782.944 135.035 783.593 135.035 784.566 135.035C785.215 133.404 785.215 131.773 785.539 130.469L789.431 130.795C789.107 131.773 788.782 133.404 788.458 135.035C792.026 135.035 796.242 134.383 799.486 134.057V137.645C795.918 138.297 791.053 138.623 787.161 138.623C786.512 140.254 785.539 142.211 784.242 143.516C785.539 142.863 787.485 142.537 789.107 142.537C791.377 142.537 793.323 143.516 793.972 145.799C796.242 144.82 798.188 143.842 800.134 143.189C801.432 142.537 802.405 142.211 803.702 141.559L805.324 145.146C804.351 145.473 802.729 146.125 801.432 146.451C799.486 147.104 797.215 148.082 794.296 149.387C794.296 151.67 794.296 154.605 794.296 156.236H790.728V155.91Z" fill="#102942"/>
<path d="M829 157.867C829 161.129 826.405 163.738 823.162 163.738C819.918 163.738 817.324 161.129 817.324 157.867C817.324 154.605 819.918 151.996 823.162 151.996C826.405 151.67 829 154.605 829 157.867ZM826.729 157.867C826.729 155.91 825.108 154.279 823.162 154.279C821.216 154.279 819.594 155.91 819.594 157.867C819.594 159.824 821.216 161.455 823.162 161.455C825.108 161.455 826.729 159.824 826.729 157.867Z" fill="#102942"/>
</g>
<defs>
<clipPath id="clip0_2_5614">
<rect width="829" height="167" fill="white"/>
</clipPath>
</defs>
</svg>
